<?xml version="1.0" encoding="utf-8"?>
<!-- Generator: Adobe Illustrator 24.1.0, SVG Export Plug-In . SVG Version: 6.00 Build 0)  -->
<svg version="1.1" xmlns="http://www.w3.org/2000/svg" xmlns:xlink="http://www.w3.org/1999/xlink" x="0px" y="0px"
	 viewBox="0 0 106.1 119.3" style="enable-background:new 0 0 106.1 119.3;" xml:space="preserve">
<style type="text/css">
	.st0{display:none;}
	.st1{display:inline;fill:#FF3FFE;}
	.st2{display:inline;fill:#FFFFFF;}
	.st3{stroke:#FFFFFF;stroke-miterlimit:10;}
	.st4{fill:#FFFFFF;stroke:#FFFFFF;stroke-miterlimit:10;}
	.st5{fill:#FFFFFF;}
	.st6{display:inline;}
	.st7{display:inline;clip-path:url(#SVGID_18_);}
	.st8{display:inline;clip-path:url(#SVGID_19_);}
	.st9{display:inline;clip-path:url(#SVGID_20_);}
	.st10{display:inline;clip-path:url(#SVGID_21_);}
	.st11{display:inline;clip-path:url(#SVGID_22_);}
	.st12{display:inline;clip-path:url(#SVGID_23_);}
	.st13{display:inline;clip-path:url(#SVGID_24_);}
	.st14{display:inline;clip-path:url(#SVGID_25_);}
	.st15{display:inline;clip-path:url(#SVGID_26_);}
	.st16{display:inline;clip-path:url(#SVGID_27_);}
	.st17{display:inline;clip-path:url(#SVGID_28_);}
	.st18{display:inline;clip-path:url(#SVGID_29_);}
	.st19{display:inline;clip-path:url(#SVGID_30_);}
	.st20{display:inline;clip-path:url(#SVGID_31_);}
	.st21{display:inline;clip-path:url(#SVGID_32_);}
	.st22{display:inline;clip-path:url(#SVGID_33_);}
	.st23{display:inline;clip-path:url(#SVGID_34_);}
	.st24{fill:#E59242;}
	.st25{fill:url(#SVGID_35_);}
	.st26{fill:#FFECB3;}
	.st27{clip-path:url(#SVGID_37_);fill:url(#SVGID_38_);}
	.st28{fill:url(#SVGID_39_);}
	.st29{clip-path:url(#SVGID_41_);fill:#FF8282;}
	.st30{fill:#D3914F;}
	.st31{display:inline;opacity:0.2;clip-path:url(#SVGID_34_);}
	.st32{clip-path:url(#SVGID_138_);}
	.st33{clip-path:url(#SVGID_139_);}
	.st34{clip-path:url(#SVGID_140_);}
	.st35{clip-path:url(#SVGID_141_);}
	.st36{clip-path:url(#SVGID_142_);}
	.st37{clip-path:url(#SVGID_143_);}
	.st38{clip-path:url(#SVGID_144_);}
	.st39{clip-path:url(#SVGID_145_);}
	.st40{clip-path:url(#SVGID_146_);}
	.st41{clip-path:url(#SVGID_147_);}
	.st42{clip-path:url(#SVGID_148_);}
	.st43{clip-path:url(#SVGID_149_);}
	.st44{clip-path:url(#SVGID_150_);}
	.st45{clip-path:url(#SVGID_151_);}
	.st46{clip-path:url(#SVGID_152_);}
	.st47{clip-path:url(#SVGID_153_);}
	.st48{clip-path:url(#SVGID_154_);}
	.st49{clip-path:url(#SVGID_155_);}
	.st50{clip-path:url(#SVGID_156_);}
	.st51{clip-path:url(#SVGID_157_);}
	.st52{clip-path:url(#SVGID_158_);}
	.st53{clip-path:url(#SVGID_159_);}
	.st54{clip-path:url(#SVGID_160_);}
	.st55{clip-path:url(#SVGID_161_);}
	.st56{clip-path:url(#SVGID_162_);}
	.st57{clip-path:url(#SVGID_163_);}
	.st58{clip-path:url(#SVGID_164_);}
	.st59{clip-path:url(#SVGID_165_);}
	.st60{clip-path:url(#SVGID_166_);}
	.st61{clip-path:url(#SVGID_167_);}
	.st62{clip-path:url(#SVGID_168_);}
	.st63{clip-path:url(#SVGID_169_);}
	.st64{clip-path:url(#SVGID_170_);}
	.st65{clip-path:url(#SVGID_171_);}
	.st66{clip-path:url(#SVGID_172_);}
	.st67{clip-path:url(#SVGID_173_);}
	.st68{clip-path:url(#SVGID_174_);}
	.st69{clip-path:url(#SVGID_175_);}
	.st70{clip-path:url(#SVGID_176_);}
	.st71{clip-path:url(#SVGID_177_);}
	.st72{clip-path:url(#SVGID_178_);}
	.st73{clip-path:url(#SVGID_179_);}
	.st74{clip-path:url(#SVGID_180_);}
	.st75{clip-path:url(#SVGID_181_);}
	.st76{clip-path:url(#SVGID_182_);}
	.st77{clip-path:url(#SVGID_183_);}
	.st78{clip-path:url(#SVGID_184_);}
	.st79{clip-path:url(#SVGID_185_);}
	.st80{clip-path:url(#SVGID_186_);}
	.st81{clip-path:url(#SVGID_187_);}
	.st82{clip-path:url(#SVGID_188_);}
	.st83{clip-path:url(#SVGID_189_);}
	.st84{clip-path:url(#SVGID_190_);}
	.st85{clip-path:url(#SVGID_191_);}
	.st86{clip-path:url(#SVGID_192_);}
	.st87{clip-path:url(#SVGID_193_);}
	.st88{clip-path:url(#SVGID_194_);}
	.st89{clip-path:url(#SVGID_195_);}
	.st90{clip-path:url(#SVGID_196_);}
	.st91{clip-path:url(#SVGID_197_);}
	.st92{clip-path:url(#SVGID_198_);}
	.st93{clip-path:url(#SVGID_199_);}
	.st94{clip-path:url(#SVGID_200_);}
	.st95{clip-path:url(#SVGID_201_);}
	.st96{clip-path:url(#SVGID_202_);}
	.st97{clip-path:url(#SVGID_203_);}
	.st98{clip-path:url(#SVGID_204_);}
	.st99{clip-path:url(#SVGID_205_);}
	.st100{clip-path:url(#SVGID_206_);}
	.st101{clip-path:url(#SVGID_207_);}
	.st102{clip-path:url(#SVGID_208_);}
	.st103{clip-path:url(#SVGID_209_);}
	.st104{clip-path:url(#SVGID_210_);}
	.st105{clip-path:url(#SVGID_211_);}
	.st106{clip-path:url(#SVGID_212_);}
	.st107{clip-path:url(#SVGID_213_);}
	.st108{clip-path:url(#SVGID_214_);}
	.st109{clip-path:url(#SVGID_215_);}
	.st110{clip-path:url(#SVGID_216_);}
	.st111{clip-path:url(#SVGID_217_);}
	.st112{clip-path:url(#SVGID_218_);}
	.st113{clip-path:url(#SVGID_219_);}
	.st114{clip-path:url(#SVGID_220_);}
	.st115{clip-path:url(#SVGID_221_);}
	.st116{clip-path:url(#SVGID_222_);}
	.st117{clip-path:url(#SVGID_223_);}
	.st118{clip-path:url(#SVGID_224_);}
	.st119{clip-path:url(#SVGID_225_);}
	.st120{clip-path:url(#SVGID_226_);}
	.st121{clip-path:url(#SVGID_227_);}
	.st122{clip-path:url(#SVGID_228_);}
	.st123{clip-path:url(#SVGID_229_);}
	.st124{clip-path:url(#SVGID_230_);}
	.st125{clip-path:url(#SVGID_231_);}
	.st126{clip-path:url(#SVGID_232_);}
</style>
<g id="background" class="st0">
	<rect x="-69" y="-58.2" class="st1" width="250" height="250"/>
</g>
<g id="circle" class="st0">
	<circle class="st2" cx="53.1" cy="59.6" r="80"/>
</g>
<g id="Face_Outline">
	<path class="st3" d="M102.5,45.4c1-4.8,1.3-12.9,1.5-15.6c0.4-7.1,0.5-14.2-0.2-21.3c-0.3-3.3-1.3-7.3-4.4-8.3
		c-2.6-0.8-5.4,0.8-7.6,2.5c-3.4,2.6-6.9,5.1-9.8,8.3c-1.6,1.7-3.5,3.1-5.7,3.9c-2.6,1-4.3,0.8-6.9,0.1c-5.3-1.5-10.9-2.1-16.4-2.1
		c-3.7,0-7.4,0.3-11,0.9c-3.3,0.6-6.3,2.2-9.7,1.7c-3.7-0.5-6-2.7-8.6-5.1c-3-2.7-6.2-5.2-9.4-7.7c-2.2-1.7-4.9-3.4-7.6-2.5
		c-3.2,1-4.1,5-4.4,8.3c-0.6,7.1-0.6,14.2-0.2,21.3c0.1,2.7,0.5,10.9,1.5,15.6C1.2,51.9,0,59,0,66.4c0,29.5,29.1,52.9,53.1,52.9
		c23.4,0,53.1-23.4,53.1-52.9C106.1,58.9,104.9,51.8,102.5,45.4z"/>
</g>
<g id="face">
	<g id="Layer_8">
		<path class="st4" d="M105.9,61.7c-1.7-1.6-4.1-2.8-7.2-3.5C93.3,57,84.1,58,79.4,73c-1,3.3-4.2,7.2-7.5,7.2
			c-6.4,0.1-7.7-7.7-19.1-7.7c-11.4,0-12.2,7.8-18.6,7.7c-3.2-0.1-6.5-4-7.5-7.2C22,58,12.7,57,7.4,58.2c-3.1,0.7-5.5,1.9-7.2,3.5
			C0.1,63.2,0,64.8,0,66.4c0,29.5,29,52.9,53,52.9c23.5,0,53-23.4,53-52.9C106.1,64.8,106,63.2,105.9,61.7z"/>
	</g>
	<ellipse id="left_eye" class="st5" cx="31.9" cy="57.4" rx="6.7" ry="7.6"/>
	<ellipse id="right_eye" class="st5" cx="74.2" cy="57.4" rx="6.7" ry="7.6"/>
	<path id="mouth" d="M81.1,87.7c-0.1-0.2-0.3-0.3-0.8-0.3c-1.3,0-2,1.1-2.7,1.8c-0.7,0.7-1.2,1.4-1.9,2.1c-1.7,1.9-3.8,3.3-6.2,4.4
		c-5.2,2.4-7.7,1.6-7.7,1.6c-0.8-0.3-1.7-0.3-2.5-0.7c-2.1-0.8-3.8-1.9-6.2-1.9c-1.6,0-3.1,0.3-4.5,1c-1.4,0.7-2.8,1.4-4.5,1.6
		c0,0-2.4,0.8-7.6-1.6c-2-0.9-3.8-2.1-5.3-3.5c-1.5-1.4-2.6-3-4.1-4.3c-0.2-0.2-0.5-0.4-0.8-0.5c-0.4-0.2-1.1-0.1-1.3,0.3
		c-0.3,0.4,0,0.8,0.2,1.2c2.8,5.1,9.6,22.6,27.8,22.6S78,94.2,80.8,89C81.1,88.6,81.3,88,81.1,87.7z"/>
	<path id="tounge" class="st5" d="M63,100.6v-1.1c-2.9-1.3-6.3-2.1-10-2.1c-4.1,0-7.9,1-11,2.5v0.6c0,5.1,4.1,9.2,9.2,9.2h2.6
		C58.9,109.9,63,105.7,63,100.6z"/>
	<path id="nose" d="M53.3,91.7L53.3,91.7C48.5,91.7,42,88,42,83.4v-0.2c0-4.5,4.4-9.4,9.2-9.4h3.5c4.8,0,9.2,4.8,9.2,9.4v0.1
		C64,87.9,58.2,91.7,53.3,91.7z"/>
</g>
<g id="Ears">
	<path class="st5" d="M8.6,14.4c0.1-1.6,0.6-3.4,2.1-3.9c1.2-0.4,2.5,0.4,3.6,1.2c2.5,1.9,5.2,4.1,7.2,6.5c0.9,1.2,1.7,2.6,1.8,4.1
		c0.1,1.6-0.5,3.2-1.4,4.5c-1.4,2.1-3.5,3.5-5.5,5.1c-1.2,1-2.6,1.8-4.1,2c-0.9,0.2-1.8,0.3-2.5-0.4c-1-0.9-1.2-7.3-1.3-9
		C8.4,21.2,8.3,17.8,8.6,14.4z"/>
	<path class="st5" d="M97.7,14.4c-0.1-1.6-0.6-3.4-2.1-3.9c-1.2-0.4-2.6,0.4-3.6,1.2c-2.5,1.9-5.2,4.1-7.2,6.5
		c-0.9,1.2-1.7,2.6-1.8,4.1c-0.1,1.6,0.5,3.2,1.4,4.5c1.4,2.1,3.5,3.5,5.4,5.1c1.2,1,2.6,1.8,4.1,2c0.9,0.2,1.8,0.3,2.5-0.4
		c1-0.9,1.2-7.3,1.3-9C98,21.2,98,17.8,97.7,14.4z"/>
</g>
<g id="original" class="st0">
	<defs>
		<circle id="SVGID_1_" cx="53" cy="59.9" r="28"/>
	</defs>
	<defs>
		<line id="SVGID_2_" x1="73" y1="-4.1" x2="73" y2="123.9"/>
	</defs>
	<defs>
		<line id="SVGID_3_" x1="33" y1="-4.1" x2="33" y2="123.9"/>
	</defs>
	<defs>
		<line id="SVGID_4_" x1="53" y1="-4.1" x2="53" y2="123.9"/>
	</defs>
	<defs>
		<line id="SVGID_5_" x1="117" y1="59.9" x2="-11" y2="59.9"/>
	</defs>
	<defs>
		<line id="SVGID_6_" x1="117" y1="39.9" x2="-11" y2="39.9"/>
	</defs>
	<defs>
		<line id="SVGID_7_" x1="117" y1="79.6" x2="-11" y2="79.6"/>
	</defs>
	<defs>
		<line id="SVGID_8_" x1="117" y1="123.9" x2="-11" y2="-4.1"/>
	</defs>
	<defs>
		<line id="SVGID_9_" x1="-11" y1="123.9" x2="117" y2="-4.1"/>
	</defs>
	<defs>
		<path id="SVGID_10_" d="M53,0.1c32.9,0,59.7,26.8,59.7,59.7S86,119.6,53,119.6S-6.7,92.8-6.7,59.9S20.1,0.1,53,0.1 M53-0.1
			c-33.1,0-60,26.9-60,60s26.9,60,60,60s60-26.9,60-60S86.2-0.1,53-0.1L53-0.1z"/>
	</defs>
	<defs>
		<path id="SVGID_11_" d="M97,111.8H9.1c-4.4,0-8-3.6-8-8V15.9c0-4.4,3.6-8,8-8H97c4.4,0,8,3.6,8,8v87.9
			C105,108.2,101.4,111.8,97,111.8z"/>
	</defs>
	<defs>
		<path id="SVGID_12_" d="M89,119.9H17c-4.4,0-8-3.6-8-8V7.9c0-4.4,3.6-8,8-8h72c4.4,0,8,3.6,8,8v104C97,116.3,93.4,119.9,89,119.9z
			"/>
	</defs>
	<defs>
		<path id="SVGID_13_" d="M102.8,103.9H3.3C-2.4,103.9-7,99.3-7,93.6V26.1c0-5.6,4.6-10.2,10.2-10.2h99.5c5.6,0,10.2,4.6,10.2,10.2
			v67.5C113,99.3,108.4,103.9,102.8,103.9z"/>
	</defs>
	<defs>
		<rect id="SVGID_14_" x="-11" y="-4.1" width="4" height="128"/>
	</defs>
	<defs>
		<rect id="SVGID_15_" x="113" y="-4.1" width="4" height="128"/>
	</defs>
	<defs>
		<rect id="SVGID_16_" x="-7" y="-4.1" width="120" height="4"/>
	</defs>
	<defs>
		<rect id="SVGID_17_" x="-7" y="119.9" width="120" height="4"/>
	</defs>
	<clipPath id="SVGID_18_" class="st6">
		<use xlink:href="#SVGID_1_"  style="overflow:visible;opacity:0.61;enable-background:new    ;"/>
	</clipPath>
	<clipPath id="SVGID_19_" class="st7">
		<use xlink:href="#SVGID_2_"  style="overflow:visible;opacity:0.61;enable-background:new    ;"/>
	</clipPath>
	<clipPath id="SVGID_20_" class="st8">
		<use xlink:href="#SVGID_3_"  style="overflow:visible;opacity:0.61;enable-background:new    ;"/>
	</clipPath>
	<clipPath id="SVGID_21_" class="st9">
		<use xlink:href="#SVGID_4_"  style="overflow:visible;opacity:0.61;enable-background:new    ;"/>
	</clipPath>
	<clipPath id="SVGID_22_" class="st10">
		<use xlink:href="#SVGID_5_"  style="overflow:visible;opacity:0.61;enable-background:new    ;"/>
	</clipPath>
	<clipPath id="SVGID_23_" class="st11">
		<use xlink:href="#SVGID_6_"  style="overflow:visible;opacity:0.61;enable-background:new    ;"/>
	</clipPath>
	<clipPath id="SVGID_24_" class="st12">
		<use xlink:href="#SVGID_7_"  style="overflow:visible;opacity:0.61;enable-background:new    ;"/>
	</clipPath>
	<clipPath id="SVGID_25_" class="st13">
		<use xlink:href="#SVGID_8_"  style="overflow:visible;opacity:0.61;enable-background:new    ;"/>
	</clipPath>
	<clipPath id="SVGID_26_" class="st14">
		<use xlink:href="#SVGID_9_"  style="overflow:visible;opacity:0.61;enable-background:new    ;"/>
	</clipPath>
	<clipPath id="SVGID_27_" class="st15">
		<use xlink:href="#SVGID_10_"  style="overflow:visible;"/>
	</clipPath>
	<clipPath id="SVGID_28_" class="st16">
		<use xlink:href="#SVGID_11_"  style="overflow:visible;opacity:0.61;enable-background:new    ;"/>
	</clipPath>
	<clipPath id="SVGID_29_" class="st17">
		<use xlink:href="#SVGID_12_"  style="overflow:visible;opacity:0.61;enable-background:new    ;"/>
	</clipPath>
	<clipPath id="SVGID_30_" class="st18">
		<use xlink:href="#SVGID_13_"  style="overflow:visible;opacity:0.61;enable-background:new    ;"/>
	</clipPath>
	<clipPath id="SVGID_31_" class="st19">
		<use xlink:href="#SVGID_14_"  style="overflow:visible;opacity:0.3;enable-background:new    ;"/>
	</clipPath>
	<clipPath id="SVGID_32_" class="st20">
		<use xlink:href="#SVGID_15_"  style="overflow:visible;opacity:0.3;enable-background:new    ;"/>
	</clipPath>
	<clipPath id="SVGID_33_" class="st21">
		<use xlink:href="#SVGID_16_"  style="overflow:visible;opacity:0.3;enable-background:new    ;"/>
	</clipPath>
	<clipPath id="SVGID_34_" class="st22">
		<use xlink:href="#SVGID_17_"  style="overflow:visible;opacity:0.3;enable-background:new    ;"/>
	</clipPath>
	<g id="Layer_2_1_" class="st23">
		<path class="st24" d="M26.4,12.9C26.4,12.9,26.4,13,26.4,12.9"/>
		<g>
			
				<linearGradient id="SVGID_35_" gradientUnits="userSpaceOnUse" x1="53.05" y1="2.4262" x2="53.05" y2="121.7123" gradientTransform="matrix(1 0 0 -1 0 121.7123)">
				<stop  offset="1.177226e-03" style="stop-color:#D47500"/>
				<stop  offset="1" style="stop-color:#FFC559"/>
			</linearGradient>
			<path class="st25" d="M102.5,45.4c1-4.8,1.3-12.9,1.5-15.6c0.4-7.1,0.5-14.2-0.2-21.3c-0.3-3.3-1.3-7.3-4.4-8.3
				c-2.6-0.8-5.4,0.8-7.6,2.5c-3.4,2.6-6.9,5.1-9.8,8.3c-1.6,1.7-3.5,3.1-5.7,3.9c-2.6,1-4.3,0.8-6.9,0.1
				c-5.3-1.5-10.9-2.1-16.4-2.1c-3.7,0-7.4,0.3-11,0.9c-3.3,0.6-6.3,2.2-9.7,1.7c-3.7-0.5-6-2.7-8.6-5.1c-3-2.7-6.2-5.2-9.4-7.7
				c-2.2-1.7-4.9-3.4-7.6-2.5c-3.2,1-4.1,5-4.4,8.3c-0.6,7.1-0.6,14.2-0.2,21.3c0.1,2.7,0.5,10.9,1.5,15.6C1.2,51.9,0,59,0,66.4
				c0,29.5,29.1,52.9,53.1,52.9c23.4,0,53.1-23.4,53.1-52.9C106.1,58.9,104.9,51.8,102.5,45.4z"/>
			<path class="st26" d="M8.6,14.4c0.1-1.6,0.6-3.4,2.1-3.9c1.2-0.4,2.5,0.4,3.6,1.2c2.5,1.9,5.2,4.1,7.2,6.5
				c0.9,1.2,1.7,2.6,1.8,4.1c0.1,1.6-0.5,3.2-1.4,4.5c-1.4,2.1-3.5,3.5-5.5,5.1c-1.2,1-2.6,1.8-4.1,2c-0.9,0.2-1.8,0.3-2.5-0.4
				c-1-0.9-1.2-7.3-1.3-9C8.4,21.2,8.3,17.8,8.6,14.4z"/>
			<path class="st26" d="M97.7,14.4c-0.1-1.6-0.6-3.4-2.1-3.9c-1.2-0.4-2.6,0.4-3.6,1.2c-2.5,1.9-5.2,4.1-7.2,6.5
				c-0.9,1.2-1.7,2.6-1.8,4.1c-0.1,1.6,0.5,3.2,1.4,4.5c1.4,2.1,3.5,3.5,5.4,5.1c1.2,1,2.6,1.8,4.1,2c0.9,0.2,1.8,0.3,2.5-0.4
				c1-0.9,1.2-7.3,1.3-9C98,21.2,98,17.8,97.7,14.4z"/>
			<g>
				<g>
					<defs>
						<path id="SVGID_36_" d="M106.1,66.4c0,29.5-29.6,52.9-53.1,52.9C29,119.3,0,95.9,0,66.4S19.1,12.9,53,12.9
							S106.1,36.8,106.1,66.4z"/>
					</defs>
					<clipPath id="SVGID_37_">
						<use xlink:href="#SVGID_36_"  style="overflow:visible;"/>
					</clipPath>
					
						<linearGradient id="SVGID_38_" gradientUnits="userSpaceOnUse" x1="53.0397" y1="48.4276" x2="53.0397" y2="3.0568" gradientTransform="matrix(1 0 0 -1 0 121.7123)">
						<stop  offset="0.1582" style="stop-color:#FFF8E1"/>
						<stop  offset="0.7074" style="stop-color:#D8D3BF"/>
						<stop  offset="1" style="stop-color:#C9C4B2"/>
					</linearGradient>
					<path class="st27" d="M98.7,58.2C93.3,57,84.1,58,79.4,73c-1,3.3-4.2,7.2-7.4,7.2c-6.4,0.2-7.7-7.7-19.1-7.7
						s-12.2,7.8-18.6,7.7c-3.2-0.1-6.5-4-7.6-7.2C22,58,12.7,57,7.4,58.2c-23,4.9-5,39.2,4.1,48.8c21.6,23.1,61.1,23.8,83.3,0
						C103.8,97.3,121.7,63.1,98.7,58.2z"/>
				</g>
			</g>
			<g>
				<ellipse cx="31.9" cy="57.4" rx="6.7" ry="7.6"/>
				<ellipse cx="74.2" cy="57.4" rx="6.7" ry="7.6"/>
			</g>
			
				<linearGradient id="SVGID_39_" gradientUnits="userSpaceOnUse" x1="53.035" y1="30.361" x2="53.035" y2="48.0261" gradientTransform="matrix(1 0 0 -1 0 121.7123)">
				<stop  offset="0" style="stop-color:#000000"/>
				<stop  offset="0.3547" style="stop-color:#262626"/>
				<stop  offset="0.8372" style="stop-color:#575757"/>
			</linearGradient>
			<path class="st28" d="M53.3,91.7L53.3,91.7C48.5,91.7,42,88,42,83.4v-0.2c0-4.5,4.4-9.4,9.2-9.4h3.5c4.8,0,9.2,4.8,9.2,9.4v0.1
				C64,87.9,58.2,91.7,53.3,91.7z"/>
			<path d="M81.1,87.7c-0.1-0.2-0.3-0.3-0.8-0.3c-1.3,0-2,1.1-2.7,1.8c-0.7,0.7-1.2,1.4-1.9,2.1c-1.7,1.9-3.8,3.3-6.2,4.4
				c-5.2,2.4-7.7,1.6-7.7,1.6c-0.8-0.3-1.7-0.3-2.5-0.7c-2.1-0.8-3.8-1.9-6.2-1.9c-1.6,0-3.1,0.3-4.5,1c-1.4,0.7-2.8,1.4-4.5,1.6
				c0,0-2.4,0.8-7.6-1.6c-2-0.9-3.8-2.1-5.3-3.5c-1.5-1.4-2.6-3-4.1-4.3c-0.2-0.2-0.5-0.4-0.8-0.5c-0.4-0.2-1.1-0.1-1.3,0.3
				c-0.3,0.4,0,0.8,0.2,1.2c2.8,5.1,9.6,22.6,27.8,22.6S78,94.2,80.8,89C81.1,88.6,81.3,88,81.1,87.7z"/>
			<g>
				<g>
					<defs>
						<path id="SVGID_40_" d="M63,100.6c0,5.1-4.1,9.2-9.2,9.2h-2.6c-5.1,0-9.2-4.1-9.2-9.2v-1.6c0-5.1,4.1-9.2,9.2-9.2h2.6
							c5.1,0,9.2,4.1,9.2,9.2V100.6z"/>
					</defs>
					<clipPath id="SVGID_41_">
						<use xlink:href="#SVGID_40_"  style="overflow:visible;"/>
					</clipPath>
					<path class="st29" d="M34.8,108.8c0-5.4,8.2-11.3,18.2-11.3s18.2,5.8,18.2,11.3s-8.2,9.8-18.2,9.8
						C43,118.6,34.8,114.2,34.8,108.8z"/>
				</g>
			</g>
			<path class="st30" d="M97.9,3.2c0.2,0,0.4,0,0.5,0.1c1.2,0.4,2.1,2.5,2.4,5.7c0.6,6.2,0.6,13.1,0.2,20.9c0,0.3,0,0.8-0.1,1.2
				c-0.2,3.2-0.5,9.9-1.3,13.9c-0.1,0.5-0.1,1.1,0.1,1.6c2.3,6.1,3.4,12.8,3.4,19.9c0,12.8-6,25.3-16.8,35.3
				c-9.9,9.1-22.3,14.6-33.3,14.6c-11.1,0-23.7-5.4-33.5-14.6C8.9,92,3,79.4,3,66.6c0-7.1,1.1-13.7,3.4-19.9
				c0.2-0.5,0.2-1.1,0.1-1.7c-0.8-4-1.2-10.7-1.4-13.9c0-0.5,0-0.9-0.1-1.2C4.6,22.1,4.7,15.2,5.2,9c0.3-3.2,1.1-5.3,2.4-5.7
				C7.8,3.2,8,3.2,8.2,3.2c1.5,0,3.6,1.6,4.3,2.1c3.4,2.6,6.4,5,9.2,7.5l0.3,0.3c2.7,2.5,5.5,5,9.9,5.6c0.5,0.1,1.1,0.1,1.6,0.1
				c2.2,0,4.3-0.6,6.1-1.1c1-0.3,2-0.6,3-0.7c3.3-0.6,6.9-0.9,10.5-0.9c5.5,0,10.8,0.7,15.6,2c1.3,0.4,2.8,0.7,4.3,0.7
				c1.4,0,2.8-0.3,4.4-0.9c2.6-1,5-2.6,6.9-4.7c2.3-2.6,5.1-4.7,8.1-7c0.4-0.3,0.8-0.6,1.2-0.9C94.3,4.8,96.4,3.2,97.9,3.2
				 M97.9,0.2c-2.2,0-4.3,1.4-6.1,2.8c-3.4,2.6-6.9,5.1-9.8,8.3c-1.6,1.7-3.5,3.1-5.7,3.9c-1.3,0.5-2.3,0.7-3.3,0.7
				c-1.1,0-2.2-0.2-3.5-0.6c-5.3-1.5-10.9-2.1-16.4-2.1c-3.7,0-7.4,0.3-11,0.9c-2.9,0.5-5.5,1.8-8.5,1.8c-0.4,0-0.8,0-1.2-0.1
				c-3.7-0.5-6-2.7-8.6-5.1c-3-2.7-6.2-5.2-9.4-7.7c-1.8-1.4-3.9-2.8-6.1-2.8c-0.5,0-1,0.1-1.5,0.2c-3.2,1-4.1,5-4.4,8.3
				C1.6,15.8,1.7,23,2.1,30.1c0.1,2.7,0.5,10.9,1.5,15.6C1.2,52.1,0,59.2,0,66.6c0,29.5,29.1,52.9,53,52.9
				c23.4,0,53.1-23.4,53.1-52.9c0-7.4-1.2-14.5-3.6-21c1-4.8,1.3-12.9,1.5-15.6c0.4-7.1,0.5-14.2-0.2-21.3c-0.3-3.3-1.3-7.3-4.4-8.3
				C98.9,0.3,98.4,0.2,97.9,0.2L97.9,0.2z"/>
		</g>
	</g>
	<g class="st31">
		<g>
			<defs>
				<rect id="SVGID_42_" x="-11" y="-4.1" width="128" height="128"/>
			</defs>
			<defs>
				<line id="SVGID_43_" x1="-39" y1="155.9" x2="-39" y2="-36.1"/>
			</defs>
			<defs>
				<line id="SVGID_44_" x1="-35" y1="155.9" x2="-35" y2="-36.1"/>
			</defs>
			<defs>
				<line id="SVGID_45_" x1="-31" y1="155.9" x2="-31" y2="-36.1"/>
			</defs>
			<defs>
				<line id="SVGID_46_" x1="-27" y1="155.9" x2="-27" y2="-36.1"/>
			</defs>
			<defs>
				<line id="SVGID_47_" x1="-23" y1="155.9" x2="-23" y2="-36.1"/>
			</defs>
			<defs>
				<line id="SVGID_48_" x1="-19" y1="155.9" x2="-19" y2="-36.1"/>
			</defs>
			<defs>
				<line id="SVGID_49_" x1="-15" y1="155.9" x2="-15" y2="-36.1"/>
			</defs>
			<defs>
				<line id="SVGID_50_" x1="-11" y1="155.9" x2="-11" y2="-36.1"/>
			</defs>
			<defs>
				<line id="SVGID_51_" x1="-7" y1="155.9" x2="-7" y2="-36.1"/>
			</defs>
			<defs>
				<line id="SVGID_52_" x1="-3" y1="155.9" x2="-3" y2="-36.1"/>
			</defs>
			<defs>
				<line id="SVGID_53_" x1="1" y1="155.9" x2="1" y2="-36.1"/>
			</defs>
			<defs>
				<line id="SVGID_54_" x1="5" y1="155.9" x2="5" y2="-36.1"/>
			</defs>
			<defs>
				<line id="SVGID_55_" x1="9" y1="155.9" x2="9" y2="-36.1"/>
			</defs>
			<defs>
				<line id="SVGID_56_" x1="13" y1="155.9" x2="13" y2="-36.1"/>
			</defs>
			<defs>
				<line id="SVGID_57_" x1="17" y1="155.9" x2="17" y2="-36.1"/>
			</defs>
			<defs>
				<line id="SVGID_58_" x1="21" y1="155.9" x2="21" y2="-36.1"/>
			</defs>
			<defs>
				<line id="SVGID_59_" x1="25" y1="155.9" x2="25" y2="-36.1"/>
			</defs>
			<defs>
				<line id="SVGID_60_" x1="29" y1="155.9" x2="29" y2="-36.1"/>
			</defs>
			<defs>
				<line id="SVGID_61_" x1="33" y1="155.9" x2="33" y2="-36.1"/>
			</defs>
			<defs>
				<line id="SVGID_62_" x1="37" y1="155.9" x2="37" y2="-36.1"/>
			</defs>
			<defs>
				<line id="SVGID_63_" x1="41" y1="155.9" x2="41" y2="-36.1"/>
			</defs>
			<defs>
				<line id="SVGID_64_" x1="45" y1="155.9" x2="45" y2="-36.1"/>
			</defs>
			<defs>
				<line id="SVGID_65_" x1="49" y1="155.9" x2="49" y2="-36.1"/>
			</defs>
			<defs>
				<line id="SVGID_66_" x1="53" y1="155.9" x2="53" y2="-36.1"/>
			</defs>
			<defs>
				<line id="SVGID_67_" x1="57" y1="155.9" x2="57" y2="-36.1"/>
			</defs>
			<defs>
				<line id="SVGID_68_" x1="61" y1="155.9" x2="61" y2="-36.1"/>
			</defs>
			<defs>
				<line id="SVGID_69_" x1="65" y1="155.9" x2="65" y2="-36.1"/>
			</defs>
			<defs>
				<line id="SVGID_70_" x1="69" y1="155.9" x2="69" y2="-36.1"/>
			</defs>
			<defs>
				<line id="SVGID_71_" x1="73" y1="155.9" x2="73" y2="-36.1"/>
			</defs>
			<defs>
				<line id="SVGID_72_" x1="77" y1="155.9" x2="77" y2="-36.1"/>
			</defs>
			<defs>
				<line id="SVGID_73_" x1="81" y1="155.9" x2="81" y2="-36.1"/>
			</defs>
			<defs>
				<line id="SVGID_74_" x1="85" y1="155.9" x2="85" y2="-36.1"/>
			</defs>
			<defs>
				<line id="SVGID_75_" x1="89" y1="155.9" x2="89" y2="-36.1"/>
			</defs>
			<defs>
				<line id="SVGID_76_" x1="93" y1="155.9" x2="93" y2="-36.1"/>
			</defs>
			<defs>
				<line id="SVGID_77_" x1="97" y1="155.9" x2="97" y2="-36.1"/>
			</defs>
			<defs>
				<line id="SVGID_78_" x1="101" y1="155.9" x2="101" y2="-36.1"/>
			</defs>
			<defs>
				<line id="SVGID_79_" x1="105" y1="155.9" x2="105" y2="-36.1"/>
			</defs>
			<defs>
				<line id="SVGID_80_" x1="109" y1="155.9" x2="109" y2="-36.1"/>
			</defs>
			<defs>
				<line id="SVGID_81_" x1="113" y1="155.9" x2="113" y2="-36.1"/>
			</defs>
			<defs>
				<line id="SVGID_82_" x1="117" y1="155.9" x2="117" y2="-36.1"/>
			</defs>
			<defs>
				<line id="SVGID_83_" x1="121" y1="155.9" x2="121" y2="-36.1"/>
			</defs>
			<defs>
				<line id="SVGID_84_" x1="125" y1="155.9" x2="125" y2="-36.1"/>
			</defs>
			<defs>
				<line id="SVGID_85_" x1="126" y1="161.9" x2="126" y2="-30.1"/>
			</defs>
			<defs>
				<line id="SVGID_86_" x1="133" y1="155.9" x2="133" y2="-36.1"/>
			</defs>
			<defs>
				<line id="SVGID_87_" x1="137" y1="155.9" x2="137" y2="-36.1"/>
			</defs>
			<defs>
				<line id="SVGID_88_" x1="141" y1="155.9" x2="141" y2="-36.1"/>
			</defs>
			<defs>
				<line id="SVGID_89_" x1="145" y1="155.9" x2="145" y2="-36.1"/>
			</defs>
			<defs>
				<line id="SVGID_90_" x1="-43" y1="-32.1" x2="149" y2="-32.1"/>
			</defs>
			<defs>
				<line id="SVGID_91_" x1="-43" y1="-28.1" x2="149" y2="-28.1"/>
			</defs>
			<defs>
				<line id="SVGID_92_" x1="-43" y1="-24.1" x2="149" y2="-24.1"/>
			</defs>
			<defs>
				<line id="SVGID_93_" x1="-43" y1="-20.1" x2="149" y2="-20.1"/>
			</defs>
			<defs>
				<line id="SVGID_94_" x1="-43" y1="-16.1" x2="149" y2="-16.1"/>
			</defs>
			<defs>
				<line id="SVGID_95_" x1="-43" y1="-12.1" x2="149" y2="-12.1"/>
			</defs>
			<defs>
				<line id="SVGID_96_" x1="-43" y1="-8.1" x2="149" y2="-8.1"/>
			</defs>
			<defs>
				<line id="SVGID_97_" x1="-43" y1="-4.1" x2="149" y2="-4.1"/>
			</defs>
			<defs>
				<line id="SVGID_98_" x1="-43" y1="-0.1" x2="149" y2="-0.1"/>
			</defs>
			<defs>
				<line id="SVGID_99_" x1="-43" y1="3.9" x2="149" y2="3.9"/>
			</defs>
			<defs>
				<line id="SVGID_100_" x1="-43" y1="7.9" x2="149" y2="7.9"/>
			</defs>
			<defs>
				<line id="SVGID_101_" x1="-43" y1="11.9" x2="149" y2="11.9"/>
			</defs>
			<defs>
				<line id="SVGID_102_" x1="-43" y1="15.9" x2="149" y2="15.9"/>
			</defs>
			<defs>
				<line id="SVGID_103_" x1="-43" y1="19.9" x2="149" y2="19.9"/>
			</defs>
			<defs>
				<line id="SVGID_104_" x1="-43" y1="23.9" x2="149" y2="23.9"/>
			</defs>
			<defs>
				<line id="SVGID_105_" x1="-43" y1="27.9" x2="149" y2="27.9"/>
			</defs>
			<defs>
				<line id="SVGID_106_" x1="-43" y1="31.9" x2="149" y2="31.9"/>
			</defs>
			<defs>
				<line id="SVGID_107_" x1="-43" y1="35.9" x2="149" y2="35.9"/>
			</defs>
			<defs>
				<line id="SVGID_108_" x1="-43" y1="39.9" x2="149" y2="39.9"/>
			</defs>
			<defs>
				<line id="SVGID_109_" x1="-43" y1="43.9" x2="149" y2="43.9"/>
			</defs>
			<defs>
				<line id="SVGID_110_" x1="-43" y1="47.9" x2="149" y2="47.9"/>
			</defs>
			<defs>
				<line id="SVGID_111_" x1="-43" y1="51.9" x2="149" y2="51.9"/>
			</defs>
			<defs>
				<line id="SVGID_112_" x1="-43" y1="55.9" x2="149" y2="55.9"/>
			</defs>
			<defs>
				<line id="SVGID_113_" x1="-43" y1="59.9" x2="149" y2="59.9"/>
			</defs>
			<defs>
				<line id="SVGID_114_" x1="-43" y1="63.9" x2="149" y2="63.9"/>
			</defs>
			<defs>
				<line id="SVGID_115_" x1="-43" y1="67.9" x2="149" y2="67.9"/>
			</defs>
			<defs>
				<line id="SVGID_116_" x1="-43" y1="71.9" x2="149" y2="71.9"/>
			</defs>
			<defs>
				<line id="SVGID_117_" x1="-43" y1="75.9" x2="149" y2="75.9"/>
			</defs>
			<defs>
				<line id="SVGID_118_" x1="-43" y1="79.9" x2="149" y2="79.9"/>
			</defs>
			<defs>
				<line id="SVGID_119_" x1="-43" y1="83.9" x2="149" y2="83.9"/>
			</defs>
			<defs>
				<line id="SVGID_120_" x1="-43" y1="87.9" x2="149" y2="87.9"/>
			</defs>
			<defs>
				<line id="SVGID_121_" x1="-43" y1="91.9" x2="149" y2="91.9"/>
			</defs>
			<defs>
				<line id="SVGID_122_" x1="-43" y1="95.9" x2="149" y2="95.9"/>
			</defs>
			<defs>
				<line id="SVGID_123_" x1="-43" y1="99.9" x2="149" y2="99.9"/>
			</defs>
			<defs>
				<line id="SVGID_124_" x1="-43" y1="103.9" x2="149" y2="103.9"/>
			</defs>
			<defs>
				<line id="SVGID_125_" x1="-43" y1="107.9" x2="149" y2="107.9"/>
			</defs>
			<defs>
				<line id="SVGID_126_" x1="-43" y1="111.9" x2="149" y2="111.9"/>
			</defs>
			<defs>
				<line id="SVGID_127_" x1="-43" y1="115.9" x2="149" y2="115.9"/>
			</defs>
			<defs>
				<line id="SVGID_128_" x1="-43" y1="119.9" x2="149" y2="119.9"/>
			</defs>
			<defs>
				<line id="SVGID_129_" x1="-43" y1="123.9" x2="149" y2="123.9"/>
			</defs>
			<defs>
				<line id="SVGID_130_" x1="-43" y1="127.9" x2="149" y2="127.9"/>
			</defs>
			<defs>
				<line id="SVGID_131_" x1="-43" y1="131.9" x2="149" y2="131.9"/>
			</defs>
			<defs>
				<line id="SVGID_132_" x1="-43" y1="135.9" x2="149" y2="135.9"/>
			</defs>
			<defs>
				<line id="SVGID_133_" x1="-43" y1="139.9" x2="149" y2="139.9"/>
			</defs>
			<defs>
				<line id="SVGID_134_" x1="-43" y1="143.9" x2="149" y2="143.9"/>
			</defs>
			<defs>
				<line id="SVGID_135_" x1="-43" y1="147.9" x2="149" y2="147.9"/>
			</defs>
			<defs>
				<line id="SVGID_136_" x1="-43" y1="151.9" x2="149" y2="151.9"/>
			</defs>
			<defs>
				<path id="SVGID_137_" d="M148.8-35.9v191.5H-42.7V-35.9H148.8 M149-36.1H-43v192h192V-36.1L149-36.1z"/>
			</defs>
			<clipPath id="SVGID_138_">
				<use xlink:href="#SVGID_42_"  style="overflow:visible;"/>
			</clipPath>
			<clipPath id="SVGID_139_" class="st32">
				<use xlink:href="#SVGID_43_"  style="overflow:visible;"/>
			</clipPath>
			<clipPath id="SVGID_140_" class="st33">
				<use xlink:href="#SVGID_44_"  style="overflow:visible;"/>
			</clipPath>
			<clipPath id="SVGID_141_" class="st34">
				<use xlink:href="#SVGID_45_"  style="overflow:visible;"/>
			</clipPath>
			<clipPath id="SVGID_142_" class="st35">
				<use xlink:href="#SVGID_46_"  style="overflow:visible;"/>
			</clipPath>
			<clipPath id="SVGID_143_" class="st36">
				<use xlink:href="#SVGID_47_"  style="overflow:visible;"/>
			</clipPath>
			<clipPath id="SVGID_144_" class="st37">
				<use xlink:href="#SVGID_48_"  style="overflow:visible;"/>
			</clipPath>
			<clipPath id="SVGID_145_" class="st38">
				<use xlink:href="#SVGID_49_"  style="overflow:visible;"/>
			</clipPath>
			<clipPath id="SVGID_146_" class="st39">
				<use xlink:href="#SVGID_50_"  style="overflow:visible;"/>
			</clipPath>
			<clipPath id="SVGID_147_" class="st40">
				<use xlink:href="#SVGID_51_"  style="overflow:visible;"/>
			</clipPath>
			<clipPath id="SVGID_148_" class="st41">
				<use xlink:href="#SVGID_52_"  style="overflow:visible;"/>
			</clipPath>
			<clipPath id="SVGID_149_" class="st42">
				<use xlink:href="#SVGID_53_"  style="overflow:visible;"/>
			</clipPath>
			<clipPath id="SVGID_150_" class="st43">
				<use xlink:href="#SVGID_54_"  style="overflow:visible;"/>
			</clipPath>
			<clipPath id="SVGID_151_" class="st44">
				<use xlink:href="#SVGID_55_"  style="overflow:visible;"/>
			</clipPath>
			<clipPath id="SVGID_152_" class="st45">
				<use xlink:href="#SVGID_56_"  style="overflow:visible;"/>
			</clipPath>
			<clipPath id="SVGID_153_" class="st46">
				<use xlink:href="#SVGID_57_"  style="overflow:visible;"/>
			</clipPath>
			<clipPath id="SVGID_154_" class="st47">
				<use xlink:href="#SVGID_58_"  style="overflow:visible;"/>
			</clipPath>
			<clipPath id="SVGID_155_" class="st48">
				<use xlink:href="#SVGID_59_"  style="overflow:visible;"/>
			</clipPath>
			<clipPath id="SVGID_156_" class="st49">
				<use xlink:href="#SVGID_60_"  style="overflow:visible;"/>
			</clipPath>
			<clipPath id="SVGID_157_" class="st50">
				<use xlink:href="#SVGID_61_"  style="overflow:visible;"/>
			</clipPath>
			<clipPath id="SVGID_158_" class="st51">
				<use xlink:href="#SVGID_62_"  style="overflow:visible;"/>
			</clipPath>
			<clipPath id="SVGID_159_" class="st52">
				<use xlink:href="#SVGID_63_"  style="overflow:visible;"/>
			</clipPath>
			<clipPath id="SVGID_160_" class="st53">
				<use xlink:href="#SVGID_64_"  style="overflow:visible;"/>
			</clipPath>
			<clipPath id="SVGID_161_" class="st54">
				<use xlink:href="#SVGID_65_"  style="overflow:visible;"/>
			</clipPath>
			<clipPath id="SVGID_162_" class="st55">
				<use xlink:href="#SVGID_66_"  style="overflow:visible;"/>
			</clipPath>
			<clipPath id="SVGID_163_" class="st56">
				<use xlink:href="#SVGID_67_"  style="overflow:visible;"/>
			</clipPath>
			<clipPath id="SVGID_164_" class="st57">
				<use xlink:href="#SVGID_68_"  style="overflow:visible;"/>
			</clipPath>
			<clipPath id="SVGID_165_" class="st58">
				<use xlink:href="#SVGID_69_"  style="overflow:visible;"/>
			</clipPath>
			<clipPath id="SVGID_166_" class="st59">
				<use xlink:href="#SVGID_70_"  style="overflow:visible;"/>
			</clipPath>
			<clipPath id="SVGID_167_" class="st60">
				<use xlink:href="#SVGID_71_"  style="overflow:visible;"/>
			</clipPath>
			<clipPath id="SVGID_168_" class="st61">
				<use xlink:href="#SVGID_72_"  style="overflow:visible;"/>
			</clipPath>
			<clipPath id="SVGID_169_" class="st62">
				<use xlink:href="#SVGID_73_"  style="overflow:visible;"/>
			</clipPath>
			<clipPath id="SVGID_170_" class="st63">
				<use xlink:href="#SVGID_74_"  style="overflow:visible;"/>
			</clipPath>
			<clipPath id="SVGID_171_" class="st64">
				<use xlink:href="#SVGID_75_"  style="overflow:visible;"/>
			</clipPath>
			<clipPath id="SVGID_172_" class="st65">
				<use xlink:href="#SVGID_76_"  style="overflow:visible;"/>
			</clipPath>
			<clipPath id="SVGID_173_" class="st66">
				<use xlink:href="#SVGID_77_"  style="overflow:visible;"/>
			</clipPath>
			<clipPath id="SVGID_174_" class="st67">
				<use xlink:href="#SVGID_78_"  style="overflow:visible;"/>
			</clipPath>
			<clipPath id="SVGID_175_" class="st68">
				<use xlink:href="#SVGID_79_"  style="overflow:visible;"/>
			</clipPath>
			<clipPath id="SVGID_176_" class="st69">
				<use xlink:href="#SVGID_80_"  style="overflow:visible;"/>
			</clipPath>
			<clipPath id="SVGID_177_" class="st70">
				<use xlink:href="#SVGID_81_"  style="overflow:visible;"/>
			</clipPath>
			<clipPath id="SVGID_178_" class="st71">
				<use xlink:href="#SVGID_82_"  style="overflow:visible;"/>
			</clipPath>
			<clipPath id="SVGID_179_" class="st72">
				<use xlink:href="#SVGID_83_"  style="overflow:visible;"/>
			</clipPath>
			<clipPath id="SVGID_180_" class="st73">
				<use xlink:href="#SVGID_84_"  style="overflow:visible;"/>
			</clipPath>
			<clipPath id="SVGID_181_" class="st74">
				<use xlink:href="#SVGID_85_"  style="overflow:visible;"/>
			</clipPath>
			<clipPath id="SVGID_182_" class="st75">
				<use xlink:href="#SVGID_86_"  style="overflow:visible;"/>
			</clipPath>
			<clipPath id="SVGID_183_" class="st76">
				<use xlink:href="#SVGID_87_"  style="overflow:visible;"/>
			</clipPath>
			<clipPath id="SVGID_184_" class="st77">
				<use xlink:href="#SVGID_88_"  style="overflow:visible;"/>
			</clipPath>
			<clipPath id="SVGID_185_" class="st78">
				<use xlink:href="#SVGID_89_"  style="overflow:visible;"/>
			</clipPath>
			<clipPath id="SVGID_186_" class="st79">
				<use xlink:href="#SVGID_90_"  style="overflow:visible;"/>
			</clipPath>
			<clipPath id="SVGID_187_" class="st80">
				<use xlink:href="#SVGID_91_"  style="overflow:visible;"/>
			</clipPath>
			<clipPath id="SVGID_188_" class="st81">
				<use xlink:href="#SVGID_92_"  style="overflow:visible;"/>
			</clipPath>
			<clipPath id="SVGID_189_" class="st82">
				<use xlink:href="#SVGID_93_"  style="overflow:visible;"/>
			</clipPath>
			<clipPath id="SVGID_190_" class="st83">
				<use xlink:href="#SVGID_94_"  style="overflow:visible;"/>
			</clipPath>
			<clipPath id="SVGID_191_" class="st84">
				<use xlink:href="#SVGID_95_"  style="overflow:visible;"/>
			</clipPath>
			<clipPath id="SVGID_192_" class="st85">
				<use xlink:href="#SVGID_96_"  style="overflow:visible;"/>
			</clipPath>
			<clipPath id="SVGID_193_" class="st86">
				<use xlink:href="#SVGID_97_"  style="overflow:visible;"/>
			</clipPath>
			<clipPath id="SVGID_194_" class="st87">
				<use xlink:href="#SVGID_98_"  style="overflow:visible;"/>
			</clipPath>
			<clipPath id="SVGID_195_" class="st88">
				<use xlink:href="#SVGID_99_"  style="overflow:visible;"/>
			</clipPath>
			<clipPath id="SVGID_196_" class="st89">
				<use xlink:href="#SVGID_100_"  style="overflow:visible;"/>
			</clipPath>
			<clipPath id="SVGID_197_" class="st90">
				<use xlink:href="#SVGID_101_"  style="overflow:visible;"/>
			</clipPath>
			<clipPath id="SVGID_198_" class="st91">
				<use xlink:href="#SVGID_102_"  style="overflow:visible;"/>
			</clipPath>
			<clipPath id="SVGID_199_" class="st92">
				<use xlink:href="#SVGID_103_"  style="overflow:visible;"/>
			</clipPath>
			<clipPath id="SVGID_200_" class="st93">
				<use xlink:href="#SVGID_104_"  style="overflow:visible;"/>
			</clipPath>
			<clipPath id="SVGID_201_" class="st94">
				<use xlink:href="#SVGID_105_"  style="overflow:visible;"/>
			</clipPath>
			<clipPath id="SVGID_202_" class="st95">
				<use xlink:href="#SVGID_106_"  style="overflow:visible;"/>
			</clipPath>
			<clipPath id="SVGID_203_" class="st96">
				<use xlink:href="#SVGID_107_"  style="overflow:visible;"/>
			</clipPath>
			<clipPath id="SVGID_204_" class="st97">
				<use xlink:href="#SVGID_108_"  style="overflow:visible;"/>
			</clipPath>
			<clipPath id="SVGID_205_" class="st98">
				<use xlink:href="#SVGID_109_"  style="overflow:visible;"/>
			</clipPath>
			<clipPath id="SVGID_206_" class="st99">
				<use xlink:href="#SVGID_110_"  style="overflow:visible;"/>
			</clipPath>
			<clipPath id="SVGID_207_" class="st100">
				<use xlink:href="#SVGID_111_"  style="overflow:visible;"/>
			</clipPath>
			<clipPath id="SVGID_208_" class="st101">
				<use xlink:href="#SVGID_112_"  style="overflow:visible;"/>
			</clipPath>
			<clipPath id="SVGID_209_" class="st102">
				<use xlink:href="#SVGID_113_"  style="overflow:visible;"/>
			</clipPath>
			<clipPath id="SVGID_210_" class="st103">
				<use xlink:href="#SVGID_114_"  style="overflow:visible;"/>
			</clipPath>
			<clipPath id="SVGID_211_" class="st104">
				<use xlink:href="#SVGID_115_"  style="overflow:visible;"/>
			</clipPath>
			<clipPath id="SVGID_212_" class="st105">
				<use xlink:href="#SVGID_116_"  style="overflow:visible;"/>
			</clipPath>
			<clipPath id="SVGID_213_" class="st106">
				<use xlink:href="#SVGID_117_"  style="overflow:visible;"/>
			</clipPath>
			<clipPath id="SVGID_214_" class="st107">
				<use xlink:href="#SVGID_118_"  style="overflow:visible;"/>
			</clipPath>
			<clipPath id="SVGID_215_" class="st108">
				<use xlink:href="#SVGID_119_"  style="overflow:visible;"/>
			</clipPath>
			<clipPath id="SVGID_216_" class="st109">
				<use xlink:href="#SVGID_120_"  style="overflow:visible;"/>
			</clipPath>
			<clipPath id="SVGID_217_" class="st110">
				<use xlink:href="#SVGID_121_"  style="overflow:visible;"/>
			</clipPath>
			<clipPath id="SVGID_218_" class="st111">
				<use xlink:href="#SVGID_122_"  style="overflow:visible;"/>
			</clipPath>
			<clipPath id="SVGID_219_" class="st112">
				<use xlink:href="#SVGID_123_"  style="overflow:visible;"/>
			</clipPath>
			<clipPath id="SVGID_220_" class="st113">
				<use xlink:href="#SVGID_124_"  style="overflow:visible;"/>
			</clipPath>
			<clipPath id="SVGID_221_" class="st114">
				<use xlink:href="#SVGID_125_"  style="overflow:visible;"/>
			</clipPath>
			<clipPath id="SVGID_222_" class="st115">
				<use xlink:href="#SVGID_126_"  style="overflow:visible;"/>
			</clipPath>
			<clipPath id="SVGID_223_" class="st116">
				<use xlink:href="#SVGID_127_"  style="overflow:visible;"/>
			</clipPath>
			<clipPath id="SVGID_224_" class="st117">
				<use xlink:href="#SVGID_128_"  style="overflow:visible;"/>
			</clipPath>
			<clipPath id="SVGID_225_" class="st118">
				<use xlink:href="#SVGID_129_"  style="overflow:visible;"/>
			</clipPath>
			<clipPath id="SVGID_226_" class="st119">
				<use xlink:href="#SVGID_130_"  style="overflow:visible;"/>
			</clipPath>
			<clipPath id="SVGID_227_" class="st120">
				<use xlink:href="#SVGID_131_"  style="overflow:visible;"/>
			</clipPath>
			<clipPath id="SVGID_228_" class="st121">
				<use xlink:href="#SVGID_132_"  style="overflow:visible;"/>
			</clipPath>
			<clipPath id="SVGID_229_" class="st122">
				<use xlink:href="#SVGID_133_"  style="overflow:visible;"/>
			</clipPath>
			<clipPath id="SVGID_230_" class="st123">
				<use xlink:href="#SVGID_134_"  style="overflow:visible;"/>
			</clipPath>
			<clipPath id="SVGID_231_" class="st124">
				<use xlink:href="#SVGID_135_"  style="overflow:visible;"/>
			</clipPath>
			<clipPath id="SVGID_232_" class="st125">
				<use xlink:href="#SVGID_136_"  style="overflow:visible;"/>
			</clipPath>
			<clipPath id="SVGID_233_" class="st126">
				<use xlink:href="#SVGID_137_"  style="overflow:visible;"/>
			</clipPath>
		</g>
	</g>
</g>
</svg>
